<?xml version="1.0" encoding="utf-8"?>
<!-- Generator: Adobe Illustrator 20.1.0, SVG Export Plug-In . SVG Version: 6.00 Build 0)  -->
<svg version="1.1" id="Capa_1" xmlns="http://www.w3.org/2000/svg" xmlns:xlink="http://www.w3.org/1999/xlink" x="0px" y="0px"
	 viewBox="0 0 100 90" style="enable-background:new 0 0 100 90;" xml:space="preserve">
<style type="text/css">
	.st0{fill:#0A080B;}
</style>
<path class="st0" d="M50.5,87.9h-0.5c-3.5,0-6.7-1.8-8.4-4.9c-1.7-3.1-1.7-6.7,0.1-9.8L81.7,6.8c1.7-2.9,4.9-4.7,8.3-4.7
	c3.5,0,6.7,1.8,8.4,4.9c1.7,3.1,1.7,6.7-0.1,9.8L58.8,83.1C57.1,86.1,53.9,87.9,50.5,87.9 M90,5.8c-2.1,0-4,1.1-5.1,2.9L44.8,75.1
	c-1.1,1.9-1.2,4.1-0.1,6c1.1,1.9,3,3,5.2,3h0.5c2.1,0,4.1-1.1,5.1-2.9l39.5-66.4c1.1-1.9,1.1-4.1,0.1-6C94.1,7,92.2,5.8,90,5.8"/>
<path class="st0" d="M11.4,87.9h-0.5c-3.5,0-6.7-1.8-8.4-4.9c-1.7-3.1-1.7-6.7,0.1-9.8L42.7,6.8c1.7-2.9,4.9-4.7,8.3-4.7
	c3.5,0,6.7,1.8,8.4,4.9c1.7,3.1,1.7,6.7-0.1,9.8L19.8,83.1C18,86.1,14.8,87.9,11.4,87.9 M51,5.8c-2.1,0-4,1.1-5.1,2.9L5.8,75.1
	c-1.1,1.9-1.2,4.1-0.1,6c1.1,1.9,3,3,5.2,3h0.5c2.1,0,4.1-1.1,5.1-2.9l39.5-66.4c1.1-1.9,1.1-4.1,0.1-6C55.1,7,53.2,5.8,51,5.8"/>
</svg>
